<?xml version="1.0" encoding="utf-8"?>
<!-- Generator: Adobe Illustrator 21.1.0, SVG Export Plug-In . SVG Version: 6.00 Build 0)  -->
<svg version="1.1" id="Capa_1" xmlns="http://www.w3.org/2000/svg" xmlns:xlink="http://www.w3.org/1999/xlink" x="0px" y="0px"
	 viewBox="0 0 33.1 33.1" style="enable-background:new 0 0 33.1 33.1;" xml:space="preserve">
<style type="text/css">
	.st0{fill:#2BADC4;}
	.st1{fill:#FFFFFF;}
</style>
<path class="st0" d="M16.6,33.1c9.1,0,16.6-7.4,16.5-16.6C33.1,7.4,25.7,0,16.5,0C7.4,0,0,7.4,0,16.5C0,25.7,7.4,33.1,16.6,33.1z"/>
<path class="st1" d="M7.7,26.5h2l2.5-6.9h8.4l2.5,6.9h3.4l-8-22.2h-6.2V5c1.3,0.2,2.6,0.2,2.6,1.6c-0.1,0.7-0.3,1.3-0.6,1.9
	L7.7,26.5z"/>
<polygon class="st0" points="16.4,8.4 20.1,18.1 12.8,18.1 "/>
</svg>
