<svg xmlns="http://www.w3.org/2000/svg" viewBox="0 0 127.74 33.12"><defs><style>.cls-1{fill:#022a3a;}.cls-1,.cls-2,.cls-3{fill-rule:evenodd;}.cls-2{fill:#007297;}.cls-3{fill:#fff;}</style></defs><title>Recurso 1</title><g id="Capa_2" data-name="Capa 2"><g id="Capa_1-2" data-name="Capa 1"><path class="cls-1" d="M38,26.43V12.78c0-1.94-.06-2.13-1.94-2.39v-.7l4.72-.52V26.43Z"/><path class="cls-1" d="M47.62,26.43h2.78V18.58H52l4.47,7.85h2.9l-4.64-8.31c2-.33,3.86-1.29,3.86-4.16,0-4.52-5.22-4.52-7.12-4.52H45.22V10c2.35.38,2.4.38,2.4,2.88ZM50.39,12.9c0-1.82,0-2.27,1.69-2.27,2.12,0,3.68.76,3.68,3.48s-2.3,3.28-3.94,3.28H50.39Z"/><path class="cls-2" d="M62.9,26.43H74.66l.1-3.66h-.71c0,2.45-1.46,2.47-3,2.47H65.9l8.56-14.46V9.45h-11l-.1,3.66h.71c0-2.47,1.46-2.47,3-2.47h4.27L62.9,25Z"/><path class="cls-2" d="M85.71,26.71c5.25,0,6.84-3.36,6.84-8.71S91,9.17,85.71,9.17c-5.48,0-7,3.41-7,8.83S80.38,26.71,85.71,26.71ZM81.49,18c0-3.41.3-7.65,4.22-7.65S89.77,14.7,89.77,18s-.15,7.52-4.06,7.52S81.49,21.13,81.49,18Z"/><path class="cls-2" d="M98.49,26.43h1.59V12.07h0l8.33,14.36h2.42v-17h-1.59V23.18h-.05l-8-13.73H96V10c2.17.43,2.52.33,2.52,2.67Z"/><path class="cls-2" d="M117.58,26.43h10.08l.08-3.66H127c-.15,2-.83,2.47-2.27,2.47h-2.8c-1.26,0-1.59-.05-1.59-1.46V18.15h3.05c1.51,0,2.07.81,2.07,2.17h.71V15h-.71c-.15.83-.33,1.94-2.07,1.94h-3.05v-5c0-1.21.33-1.31,1.59-1.31h2c1.67,0,2.73.53,2.73,2.55h.72l-.08-3.74h-12.1V10c2.32.38,2.4.38,2.4,2.88Z"/><path class="cls-1" d="M16.57,33.12A16.56,16.56,0,1,0,0,16.55,16.59,16.59,0,0,0,16.57,33.12Z"/><path class="cls-3" d="M7.73,26.49h2l2.48-6.88h8.43l2.48,6.88h3.44L18.54,4.24H12.32V5c1.32.2,2.55.23,2.55,1.55a13.66,13.66,0,0,1-.56,1.95Z"/><polygon class="cls-1" points="16.36 8.41 20.13 18.06 12.82 18.06 16.36 8.41"/></g></g></svg>