<?xml version="1.0" encoding="UTF-8"?>
<svg width="25px" height="25px" viewBox="0 0 25 25" version="1.1" xmlns="http://www.w3.org/2000/svg" xmlns:xlink="http://www.w3.org/1999/xlink">
    <!-- Generator: Sketch 51 (57462) - http://www.bohemiancoding.com/sketch -->
    <title>clipboard</title>
    <desc>Created with Sketch.</desc>
    <defs></defs>
    <g id="Page-1" stroke="none" stroke-width="1" fill="none" fill-rule="evenodd">
        <path d="M22.2962129,5.42285156 C21.5962129,5.42285156 20.9382129,5.69585156 20.4432129,6.19085156 L19.0642129,7.56985156 C19.0642129,7.56985156 19.0642129,7.56985156 19.0642129,7.56985156 C19.0642129,7.56985156 19.0642129,7.56985156 19.0642129,7.56985156 L18.9182129,7.71585156 L18.9182129,3.92285156 C18.9182129,3.09585156 18.2452129,2.42285156 17.4182129,2.42285156 L14.8262129,2.42285156 C14.6192129,1.84185156 14.0692129,1.42285156 13.4182129,1.42285156 L11.6442129,1.42285156 C11.2912129,0.812851563 10.6362129,0.422851562 9.91821289,0.422851562 C9.20021289,0.422851562 8.54521289,0.812851563 8.19221289,1.42285156 L6.41821289,1.42285156 C5.76721289,1.42285156 5.21721289,1.84185156 5.01021289,2.42285156 L2.41821289,2.42285156 C1.59121289,2.42285156 0.918212891,3.09585156 0.918212891,3.92285156 L0.918212891,22.9228516 C0.918212891,23.7498516 1.59121289,24.4228516 2.41821289,24.4228516 L17.4182129,24.4228516 C18.2452129,24.4228516 18.9182129,23.7498516 18.9182129,22.9228516 L18.9182129,15.1288516 L22.7682129,11.2788516 C22.7692129,11.2778516 22.7702129,11.2778516 22.7712129,11.2768516 C22.7722129,11.2758516 22.7722129,11.2748516 22.7732129,11.2738516 L24.1502129,9.89685156 C24.6462129,9.40185156 24.9182129,8.74385156 24.9182129,8.04285156 C24.9182129,6.59785156 23.7422129,5.42285156 22.2962129,5.42285156 Z M5.91821289,2.92285156 C5.91821289,2.64685156 6.14221289,2.42285156 6.41821289,2.42285156 L8.51021289,2.42285156 C8.72121289,2.42285156 8.91021289,2.28885156 8.98121289,2.08985156 C9.12321289,1.69085156 9.50021289,1.42285156 9.91821289,1.42285156 C10.3362129,1.42285156 10.7132129,1.69085156 10.8552129,2.08985156 C10.9262129,2.28985156 11.1152129,2.42285156 11.3262129,2.42285156 L13.4182129,2.42285156 C13.6942129,2.42285156 13.9182129,2.64685156 13.9182129,2.92285156 L13.9182129,3.42285156 L5.91821289,3.42285156 L5.91821289,2.92285156 Z M17.9182129,22.9228516 C17.9182129,23.1988516 17.6942129,23.4228516 17.4182129,23.4228516 L2.41821289,23.4228516 C2.14221289,23.4228516 1.91821289,23.1988516 1.91821289,22.9228516 L1.91821289,3.92285156 C1.91821289,3.64685156 2.14221289,3.42285156 2.41821289,3.42285156 L4.91821289,3.42285156 L4.91821289,3.92285156 C4.91821289,4.19885156 5.14221289,4.42285156 5.41821289,4.42285156 L14.4182129,4.42285156 C14.6942129,4.42285156 14.9182129,4.19885156 14.9182129,3.92285156 L14.9182129,3.42285156 L17.4182129,3.42285156 C17.6942129,3.42285156 17.9182129,3.64685156 17.9182129,3.92285156 L17.9182129,8.71585156 L11.0772129,15.5568516 C11.0732129,15.5598516 11.0702129,15.5638516 11.0672129,15.5668516 L11.0642129,15.5698516 C11.0632129,15.5708516 11.0622129,15.5738516 11.0612129,15.5748516 C11.0082129,15.6288516 10.9732129,15.6968516 10.9502129,15.7718516 C10.9462129,15.7828516 10.9362129,15.7908516 10.9332129,15.8018516 L9.93321289,19.8018516 C9.89021289,19.9728516 9.94021289,20.1528516 10.0642129,20.2768516 C10.1592129,20.3708516 10.2872129,20.4228516 10.4182129,20.4228516 C10.4592129,20.4228516 10.4992129,20.4178516 10.5392129,20.4068516 L14.5392129,19.4068516 C14.5512129,19.4038516 14.5592129,19.3928516 14.5702129,19.3888516 C14.6332129,19.3678516 14.6902129,19.3358516 14.7392129,19.2938516 C14.7482129,19.2858516 14.7622129,19.2848516 14.7712129,19.2758516 L17.9182129,16.1288516 L17.9182129,22.9228516 Z M11.7902129,16.4998516 C12.1132129,16.5938516 12.5912129,16.8018516 13.0642129,17.2758516 C13.5382129,17.7498516 13.7472129,18.2288516 13.8412129,18.5508516 L11.1052129,19.2358516 L11.7902129,16.4998516 Z M14.6832129,17.9498516 C14.5202129,17.5378516 14.2492129,17.0468516 13.7702129,16.5688516 C13.2932129,16.0918516 12.8032129,15.8198516 12.3912129,15.6578516 L19.4182129,8.63085156 L21.7102129,10.9228516 L14.6832129,17.9498516 Z M23.4432129,9.18985156 L22.4172129,10.2158516 L20.1252129,7.92385156 L21.1512129,6.89685156 C21.4572129,6.58985156 21.8642129,6.42185156 22.2982129,6.42185156 C23.1912129,6.42185156 23.9182129,7.14885156 23.9182129,8.04385156 C23.9182129,8.47685156 23.7492129,8.88385156 23.4432129,9.18985156 Z" id="clipboard" fill="#000000" fill-rule="nonzero"></path>
    </g>
</svg>