<?xml version="1.0" encoding="UTF-8"?>
<svg width="25px" height="18px" viewBox="0 0 25 18" version="1.1" xmlns="http://www.w3.org/2000/svg" xmlns:xlink="http://www.w3.org/1999/xlink">
    <!-- Generator: Sketch 50.2 (55047) - http://www.bohemiancoding.com/sketch -->
    <title>desktop</title>
    <desc>Created with Sketch.</desc>
    <defs></defs>
    <g id="Page-1" stroke="none" stroke-width="1" fill="none" fill-rule="evenodd">
        <path d="M24.2165527,13.9228516 L22.7165527,13.9228516 L22.7165527,2.42285156 C22.7165527,1.59585156 22.0435527,0.922851562 21.2165527,0.922851562 L4.21655273,0.922851562 C3.38955273,0.922851562 2.71655273,1.59585156 2.71655273,2.42285156 L2.71655273,13.9228516 L1.21655273,13.9228516 C0.940552734,13.9228516 0.716552734,14.1468516 0.716552734,14.4228516 L0.716552734,15.4228516 C0.716552734,16.8008516 1.83855273,17.9228516 3.21655273,17.9228516 L22.2165527,17.9228516 C23.5945527,17.9228516 24.7165527,16.8008516 24.7165527,15.4228516 L24.7165527,14.4228516 C24.7165527,14.1468516 24.4925527,13.9228516 24.2165527,13.9228516 Z M3.71655273,2.42285156 C3.71655273,2.14685156 3.94055273,1.92285156 4.21655273,1.92285156 L21.2165527,1.92285156 C21.4925527,1.92285156 21.7165527,2.14685156 21.7165527,2.42285156 L21.7165527,13.9228516 L16.7165527,13.9228516 C16.5835527,13.9228516 16.4565527,13.9758516 16.3645527,14.0688516 L15.5105527,14.9228516 L9.92455273,14.9228516 L9.07055273,14.0688516 C8.97655273,13.9758516 8.84955273,13.9228516 8.71655273,13.9228516 L3.71655273,13.9228516 L3.71655273,2.42285156 Z M23.7165527,15.4228516 C23.7165527,16.2498516 23.0435527,16.9228516 22.2165527,16.9228516 L3.21655273,16.9228516 C2.38955273,16.9228516 1.71655273,16.2498516 1.71655273,15.4228516 L1.71655273,14.9228516 L8.50955273,14.9228516 L9.36255273,15.7768516 C9.45655273,15.8698516 9.58355273,15.9228516 9.71655273,15.9228516 L15.7165527,15.9228516 C15.8495527,15.9228516 15.9765527,15.8698516 16.0695527,15.7768516 L16.9235527,14.9228516 L23.7165527,14.9228516 L23.7165527,15.4228516 Z" id="desktop" fill="#000000" fill-rule="nonzero"></path>
    </g>
</svg>