<?xml version="1.0" encoding="UTF-8"?>
<svg width="19px" height="25px" viewBox="0 0 19 25" version="1.1" xmlns="http://www.w3.org/2000/svg" xmlns:xlink="http://www.w3.org/1999/xlink">
    <!-- Generator: Sketch 50.2 (55047) - http://www.bohemiancoding.com/sketch -->
    <title>lap</title>
    <desc>Created with Sketch.</desc>
    <defs></defs>
    <g id="Page-1" stroke="none" stroke-width="1" fill="none" fill-rule="evenodd">
        <path d="M9.51489258,20.9228516 C8.96289258,20.9228516 8.51489258,21.3708516 8.51489258,21.9228516 C8.51489258,22.4748516 8.96289258,22.9228516 9.51489258,22.9228516 C10.0668926,22.9228516 10.5148926,22.4748516 10.5148926,21.9228516 C10.5148926,21.3708516 10.0668926,20.9228516 9.51489258,20.9228516 Z M16.0148926,2.42285156 L3.01489258,2.42285156 C2.73889258,2.42285156 2.51489258,2.64685156 2.51489258,2.92285156 L2.51489258,19.9228516 C2.51489258,20.1988516 2.73889258,20.4228516 3.01489258,20.4228516 L16.0148926,20.4228516 C16.2908926,20.4228516 16.5148926,20.1988516 16.5148926,19.9228516 L16.5148926,2.92285156 C16.5148926,2.64685156 16.2908926,2.42285156 16.0148926,2.42285156 Z M15.5148926,19.4228516 L3.51489258,19.4228516 L3.51489258,3.42285156 L15.5148926,3.42285156 L15.5148926,19.4228516 Z M16.0148926,0.422851562 L3.01489258,0.422851562 C1.63689258,0.422851562 0.514892578,1.54485156 0.514892578,2.92285156 L0.514892578,21.9228516 C0.514892578,23.3008516 1.63689258,24.4228516 3.01489258,24.4228516 L16.0148926,24.4228516 C17.3928926,24.4228516 18.5148926,23.3008516 18.5148926,21.9228516 L18.5148926,2.92285156 C18.5148926,1.54485156 17.3928926,0.422851562 16.0148926,0.422851562 Z M17.5148926,21.9228516 C17.5148926,22.7498516 16.8418926,23.4228516 16.0148926,23.4228516 L3.01489258,23.4228516 C2.18789258,23.4228516 1.51489258,22.7498516 1.51489258,21.9228516 L1.51489258,2.92285156 C1.51489258,2.09585156 2.18789258,1.42285156 3.01489258,1.42285156 L16.0148926,1.42285156 C16.8418926,1.42285156 17.5148926,2.09585156 17.5148926,2.92285156 L17.5148926,21.9228516 Z" id="lap" fill="#000000" fill-rule="nonzero"></path>
    </g>
</svg>