<?xml version="1.0" encoding="UTF-8"?>
<svg width="25px" height="23px" viewBox="0 0 25 23" version="1.1" xmlns="http://www.w3.org/2000/svg" xmlns:xlink="http://www.w3.org/1999/xlink">
    <!-- Generator: Sketch 50.2 (55047) - http://www.bohemiancoding.com/sketch -->
    <title>large</title>
    <desc>Created with Sketch.</desc>
    <defs></defs>
    <g id="Page-1" stroke="none" stroke-width="1" fill="none" fill-rule="evenodd">
        <path d="M20.3373828,16.4228516 C20.6133828,16.4228516 20.8373828,16.1988516 20.8373828,15.9228516 C20.8373828,15.6468516 20.6133828,15.4228516 20.3373828,15.4228516 L20.3273828,15.4228516 C20.0513828,15.4228516 19.8323828,15.6468516 19.8323828,15.9228516 C19.8323828,16.1988516 20.0613828,16.4228516 20.3373828,16.4228516 Z M12.8173828,16.9228516 C13.3693828,16.9228516 13.8173828,16.4748516 13.8173828,15.9228516 C13.8173828,15.3708516 13.3693828,14.9228516 12.8173828,14.9228516 C12.2653828,14.9228516 11.8173828,15.3708516 11.8173828,15.9228516 C11.8173828,16.4748516 12.2653828,16.9228516 12.8173828,16.9228516 Z M22.3173828,0.422851562 L3.31738281,0.422851562 C1.93938281,0.422851562 0.817382812,1.54485156 0.817382812,2.92285156 L0.817382812,15.9228516 C0.817382812,17.3008516 1.93938281,18.4228516 3.31738281,18.4228516 L10.3033828,18.4228516 C10.2313828,20.4058516 9.73638281,21.4228516 8.81738281,21.4228516 C8.54138281,21.4228516 8.31738281,21.6468516 8.31738281,21.9228516 C8.31738281,22.1988516 8.54138281,22.4228516 8.81738281,22.4228516 L16.8173828,22.4228516 C17.0933828,22.4228516 17.3163828,22.1988516 17.3163828,21.9228516 C17.3163828,21.6468516 17.0923828,21.4228516 16.8163828,21.4228516 C15.8973828,21.4228516 15.4023828,20.4058516 15.3303828,18.4228516 L22.3173828,18.4228516 C23.6953828,18.4228516 24.8173828,17.3008516 24.8173828,15.9228516 L24.8173828,2.92285156 C24.8173828,1.54485156 23.6953828,0.422851562 22.3173828,0.422851562 Z M10.6123828,21.4228516 C11.0283828,20.7578516 11.2503828,19.7438516 11.2973828,18.4228516 L14.3363828,18.4228516 C14.3833828,19.7438516 14.6053828,20.7578516 15.0213828,21.4228516 L10.6123828,21.4228516 Z M23.8173828,15.9228516 C23.8173828,16.7498516 23.1443828,17.4228516 22.3173828,17.4228516 L3.31738281,17.4228516 C2.49038281,17.4228516 1.81738281,16.7498516 1.81738281,15.9228516 L1.81738281,14.4228516 L23.8173828,14.4228516 L23.8173828,15.9228516 Z M23.8173828,13.4228516 L1.81738281,13.4228516 L1.81738281,2.92285156 C1.81738281,2.09585156 2.49038281,1.42285156 3.31738281,1.42285156 L22.3173828,1.42285156 C23.1443828,1.42285156 23.8173828,2.09585156 23.8173828,2.92285156 L23.8173828,13.4228516 Z" id="large" fill="#000000" fill-rule="nonzero"></path>
    </g>
</svg>