<?xml version="1.0" encoding="UTF-8"?>
<svg width="16px" height="25px" viewBox="0 0 16 25" version="1.1" xmlns="http://www.w3.org/2000/svg" xmlns:xlink="http://www.w3.org/1999/xlink">
    <!-- Generator: Sketch 50.2 (55047) - http://www.bohemiancoding.com/sketch -->
    <title>palm</title>
    <desc>Created with Sketch.</desc>
    <defs></defs>
    <g id="Page-1" stroke="none" stroke-width="1" fill="none" fill-rule="evenodd">
        <path d="M11.9340625,2.42285156 L11.9240625,2.42285156 C11.6480625,2.42285156 11.4290625,2.64685156 11.4290625,2.92285156 C11.4290625,3.19885156 11.6580625,3.42285156 11.9340625,3.42285156 C12.2100625,3.42285156 12.4340625,3.19885156 12.4340625,2.92285156 C12.4340625,2.64685156 12.2100625,2.42285156 11.9340625,2.42285156 Z M12.9140625,0.422851562 L2.9140625,0.422851562 C1.5360625,0.422851562 0.4140625,1.54485156 0.4140625,2.92285156 L0.4140625,21.9228516 C0.4140625,23.3008516 1.5360625,24.4228516 2.9140625,24.4228516 L12.9140625,24.4228516 C14.2920625,24.4228516 15.4140625,23.3008516 15.4140625,21.9228516 L15.4140625,2.92285156 C15.4140625,1.54485156 14.2920625,0.422851562 12.9140625,0.422851562 Z M14.4140625,21.9228516 C14.4140625,22.7498516 13.7410625,23.4228516 12.9140625,23.4228516 L2.9140625,23.4228516 C2.0870625,23.4228516 1.4140625,22.7498516 1.4140625,21.9228516 L1.4140625,19.4228516 L14.4140625,19.4228516 L14.4140625,21.9228516 Z M14.4140625,18.4228516 L1.4140625,18.4228516 L1.4140625,5.42285156 L14.4140625,5.42285156 L14.4140625,18.4228516 Z M14.4140625,4.42285156 L1.4140625,4.42285156 L1.4140625,2.92285156 C1.4140625,2.09585156 2.0870625,1.42285156 2.9140625,1.42285156 L12.9140625,1.42285156 C13.7410625,1.42285156 14.4140625,2.09585156 14.4140625,2.92285156 L14.4140625,4.42285156 Z M7.9140625,22.4228516 C8.4660625,22.4228516 8.9140625,21.9748516 8.9140625,21.4228516 C8.9140625,20.8708516 8.4660625,20.4228516 7.9140625,20.4228516 C7.3620625,20.4228516 6.9140625,20.8708516 6.9140625,21.4228516 C6.9140625,21.9748516 7.3620625,22.4228516 7.9140625,22.4228516 Z M8.9140625,2.42285156 L6.9140625,2.42285156 C6.6380625,2.42285156 6.4140625,2.64685156 6.4140625,2.92285156 C6.4140625,3.19885156 6.6380625,3.42285156 6.9140625,3.42285156 L8.9140625,3.42285156 C9.1900625,3.42285156 9.4140625,3.19885156 9.4140625,2.92285156 C9.4140625,2.64685156 9.1900625,2.42285156 8.9140625,2.42285156 Z" id="palm" fill="#000000" fill-rule="nonzero"></path>
    </g>
</svg>