<?xml version="1.0" encoding="UTF-8"?>
<svg width="25px" height="19px" viewBox="0 0 25 19" version="1.1" xmlns="http://www.w3.org/2000/svg" xmlns:xlink="http://www.w3.org/1999/xlink">
    <!-- Generator: Sketch 50.2 (55047) - http://www.bohemiancoding.com/sketch -->
    <title>small</title>
    <desc>Created with Sketch.</desc>
    <defs></defs>
    <g id="Page-1" stroke="none" stroke-width="1" fill="none" fill-rule="evenodd">
        <path d="M4.11572266,9.42285156 C4.11572266,9.97485156 3.66772266,10.4228516 3.11572266,10.4228516 C2.56372266,10.4228516 2.11572266,9.97485156 2.11572266,9.42285156 C2.11572266,8.87085156 2.56372266,8.42285156 3.11572266,8.42285156 C3.66772266,8.42285156 4.11572266,8.87085156 4.11572266,9.42285156 Z M22.6157227,15.9228516 C22.6157227,16.1988516 22.3917227,16.4228516 22.1157227,16.4228516 L5.11572266,16.4228516 C4.83972266,16.4228516 4.61572266,16.1988516 4.61572266,15.9228516 L4.61572266,2.92285156 C4.61572266,2.64685156 4.83972266,2.42285156 5.11572266,2.42285156 L22.1157227,2.42285156 C22.3917227,2.42285156 22.6157227,2.64685156 22.6157227,2.92285156 L22.6157227,15.9228516 Z M5.61572266,15.4228516 L21.6157227,15.4228516 L21.6157227,3.42285156 L5.61572266,3.42285156 L5.61572266,15.4228516 Z M24.6157227,15.9228516 C24.6157227,17.3008516 23.4937227,18.4228516 22.1157227,18.4228516 L3.11572266,18.4228516 C1.73772266,18.4228516 0.615722656,17.3008516 0.615722656,15.9228516 L0.615722656,2.92285156 C0.615722656,1.54485156 1.73772266,0.422851562 3.11572266,0.422851562 L22.1157227,0.422851562 C23.4937227,0.422851562 24.6157227,1.54485156 24.6157227,2.92285156 L24.6157227,15.9228516 Z M3.11572266,17.4228516 L22.1157227,17.4228516 C22.9427227,17.4228516 23.6157227,16.7498516 23.6157227,15.9228516 L23.6157227,2.92285156 C23.6157227,2.09585156 22.9427227,1.42285156 22.1157227,1.42285156 L3.11572266,1.42285156 C2.28872266,1.42285156 1.61572266,2.09585156 1.61572266,2.92285156 L1.61572266,15.9228516 C1.61572266,16.7498516 2.28872266,17.4228516 3.11572266,17.4228516 Z" id="small" fill="#000000" fill-rule="nonzero"></path>
    </g>
</svg>